<svg width="48" height="48" viewBox="0 0 48 48" fill="none" xmlns="http://www.w3.org/2000/svg">
<g clip-path="url(#clip0_561_2)">
<path d="M35.8843 28.4666C35.3506 31.6499 34.2927 34.3186 32.7105 36.4726C31.1284 38.6266 29.2078 40.2517 26.949 41.3478C24.6901 42.4438 22.274 42.9919 19.7006 42.9919C16.9557 42.9919 14.5729 42.3962 12.5524 41.2048C10.5318 40.0134 9.05925 38.2692 8.13474 35.9723C7.21023 33.6753 7.02437 30.8684 7.57717 27.5516C8.09185 24.3682 9.14026 21.69 10.7224 19.5169C12.3046 17.3438 14.2346 15.6997 16.5125 14.5846C18.7904 13.4695 21.2256 12.9119 23.818 12.9119C26.5439 12.9119 28.9124 13.5124 30.9234 14.7133C32.944 15.9142 34.4118 17.6727 35.3268 19.9887C36.2513 22.3048 36.4371 25.1307 35.8843 28.4666ZM27.8783 27.5516C28.1451 25.8741 28.1642 24.4635 27.9355 23.3198C27.7067 22.1666 27.2254 21.2992 26.4915 20.7178C25.7576 20.1269 24.7712 19.8314 23.5321 19.8314C22.1215 19.8314 20.873 20.1746 19.7864 20.8608C18.6999 21.547 17.7992 22.5335 17.0844 23.8202C16.3695 25.1069 15.8692 26.6557 15.5832 28.4666C15.2782 30.1631 15.2497 31.5737 15.4975 32.6983C15.7548 33.823 16.2599 34.6665 17.0129 35.2288C17.7754 35.7912 18.7666 36.0723 19.9866 36.0723C21.3781 36.0723 22.6076 35.7387 23.6751 35.0716C24.7521 34.4044 25.6432 33.437 26.3485 32.1694C27.0634 30.9017 27.5733 29.3625 27.8783 27.5516Z" fill="#74BE33"/>
<path d="M22.0527 22.9633C18.2603 29.1498 17.5942 32.8458 18.6358 39.7836C15.7217 35.799 16.2359 27.0221 22.0527 22.9633Z" fill="#74BE33"/>
<path d="M33.3356 8.15459C31.0932 8.33679 27.5443 11.7314 25.426 15.6245L29.5492 16.4521C29.5628 16.2813 29.5822 16.1043 29.6068 15.9199C30.4119 12.8848 31.2511 11.3103 33.6464 8.79695C33.9721 8.43985 33.965 8.28472 33.3356 8.15459Z" fill="#74BE33"/>
<path d="M20.8914 3.83378C20.319 3.66654 20.1705 3.73259 20.2912 4.20834C21.9968 8.17041 22.5977 11.0483 21.9251 14.3594C21.863 14.542 21.8002 14.7167 21.7358 14.8839L25.3375 15.6068C26.1697 13.0417 26.999 11.6003 28.9269 9.35519C29.3903 6.29764 29.3924 4.58503 28.9717 1.53107C28.7959 1.04153 28.6448 0.984613 28.2565 1.38579C26.4621 4.39216 25.7681 6.12552 25.2905 9.33359C25.561 10.9625 25.634 11.8732 25.3574 13.4845C25.0707 9.26398 23.1561 5.17647 20.8914 3.83378Z" fill="#74BE33"/>
<path d="M24.5174 45.8603C24.213 45.1663 23.9897 44.7768 23.4997 44.0814L24.847 41.8901L16.6127 42.6824L14.9285 43.9124C14.4765 44.3722 14.9633 45.3704 15.7199 45.1764C16.5942 44.9522 17.0563 44.6409 17.8651 43.9849C17.6979 44.7601 17.5711 45.187 17.2761 45.9339C17.4962 46.7457 17.8304 46.7954 18.6208 46.5104C19.0544 45.7556 19.242 45.2998 19.5334 44.4617L20.0632 44.5693C20.0076 45.4373 20.005 45.927 20.1041 46.8118C20.6911 47.3872 21.0265 47.4332 21.6417 46.7104C21.7344 45.6245 21.7853 45.0754 21.8649 44.7974C22.2227 45.6409 22.5033 46.053 23.1367 46.6831C24.1781 47.1506 24.4806 46.9705 24.5174 45.8603Z" fill="#74BE33"/>
</g>
<defs>
<clipPath id="clip0_561_2">
<rect width="48" height="48" fill="white"/>
</clipPath>
</defs>
</svg>
