<svg width="167" height="50" viewBox="0 0 167 50" fill="none" xmlns="http://www.w3.org/2000/svg">
<path d="M147.143 22.3224C143.752 27.8544 143.156 31.1594 144.088 37.3632C141.482 33.8002 141.942 25.9518 147.143 22.3224Z" fill="#497D00"/>
<path d="M157.232 9.08032C155.227 9.24324 152.054 12.2787 150.16 15.76L153.847 16.5C153.859 16.3473 153.876 16.189 153.898 16.0241C154.618 13.3101 155.368 11.9022 157.51 9.65472C157.801 9.3354 157.795 9.19668 157.232 9.08032Z" fill="#497D00"/>
<path d="M146.105 5.21661C145.593 5.06706 145.46 5.12613 145.568 5.55155C147.093 9.09447 147.63 11.6679 147.029 14.6287C146.973 14.792 146.917 14.9482 146.86 15.0977L150.08 15.7441C150.825 13.4504 151.566 12.1615 153.29 10.1539C153.704 7.41982 153.706 5.88838 153.33 3.15752C153.173 2.71976 153.038 2.66887 152.691 3.0276C151.086 5.71592 150.465 7.26591 150.038 10.1346C150.28 11.5911 150.346 12.4056 150.098 13.8463C149.842 10.0723 148.13 6.41726 146.105 5.21661Z" fill="#497D00"/>
<path d="M149.347 42.7971C149.075 42.1765 148.875 41.8282 148.437 41.2064L149.642 39.2469L142.279 39.9553L140.773 41.0552C140.368 41.4664 140.804 42.359 141.48 42.1855C142.262 41.985 142.675 41.7066 143.398 41.1201C143.249 41.8133 143.136 42.195 142.872 42.8629C143.069 43.5888 143.367 43.6333 144.074 43.3784C144.462 42.7034 144.63 42.2959 144.89 41.5464L145.364 41.6427C145.314 42.4188 145.312 42.8567 145.401 43.6479C145.926 44.1624 146.225 44.2036 146.776 43.5572C146.858 42.5863 146.904 42.0952 146.975 41.8466C147.295 42.6009 147.546 42.9694 148.112 43.5328C149.044 43.9509 149.314 43.7898 149.347 42.7971Z" fill="#497D00"/>
<path d="M17.1307 23C17.2074 22.1562 17.0028 21.4957 16.517 21.0185C16.0313 20.5327 15.2131 20.2898 14.0625 20.2898C13.3295 20.2898 12.7159 20.375 12.2216 20.5455C11.7358 20.7159 11.3565 20.9503 11.0838 21.2486C10.8196 21.5469 10.6534 21.892 10.5852 22.2841C10.5085 22.5909 10.5128 22.8722 10.598 23.1278C10.6918 23.375 10.8665 23.6009 11.1222 23.8054C11.3864 24.0099 11.7315 24.1932 12.1577 24.3551C12.5923 24.517 13.108 24.6619 13.7045 24.7898L15.75 25.25C17.1477 25.5568 18.3196 25.9616 19.2656 26.4645C20.2202 26.9588 20.9702 27.5469 21.5156 28.2287C22.0611 28.9105 22.419 29.6733 22.5895 30.517C22.7685 31.3608 22.7727 32.2812 22.6023 33.2784C22.3125 35 21.6435 36.4574 20.5952 37.6506C19.5469 38.8438 18.179 39.7514 16.4915 40.3736C14.804 40.9957 12.8523 41.3068 10.6364 41.3068C8.36932 41.3068 6.44318 40.9702 4.85795 40.2969C3.28125 39.6151 2.1392 38.5753 1.43182 37.1776C0.732955 35.7713 0.5625 33.9773 0.920455 31.7955H7.67045C7.56818 32.5966 7.65341 33.2699 7.92614 33.8153C8.19886 34.3608 8.63778 34.7741 9.2429 35.0554C9.84801 35.3366 10.6023 35.4773 11.5057 35.4773C12.2727 35.4773 12.929 35.3835 13.4744 35.196C14.0199 35.0085 14.4503 34.7486 14.7656 34.4162C15.081 34.0838 15.2727 33.7045 15.3409 33.2784C15.4091 32.8864 15.3409 32.5369 15.1364 32.2301C14.9318 31.9233 14.5611 31.6463 14.0241 31.3991C13.4872 31.152 12.75 30.9261 11.8125 30.7216L9.30682 30.1591C7.08239 29.6477 5.40341 28.804 4.26989 27.6278C3.13636 26.4517 2.7358 24.8409 3.06818 22.7955C3.34091 21.125 4.02699 19.6676 5.12642 18.4233C6.23438 17.1705 7.64062 16.1989 9.34517 15.5085C11.0582 14.8097 12.9545 14.4602 15.0341 14.4602C17.1477 14.4602 18.9162 14.8139 20.3395 15.5213C21.7713 16.2287 22.7983 17.2216 23.4205 18.5C24.0511 19.7784 24.2216 21.2784 23.9318 23H17.1307ZM51.4879 28.3693C51.0107 31.2159 50.0646 33.6023 48.6499 35.5284C47.2351 37.4545 45.5178 38.9077 43.4979 39.8878C41.478 40.8679 39.3175 41.358 37.0163 41.358C34.5618 41.358 32.4311 40.8253 30.6243 39.7599C28.8175 38.6946 27.5007 37.1349 26.674 35.081C25.8473 33.027 25.6811 30.517 26.1754 27.5511C26.6357 24.7045 27.5732 22.3097 28.9879 20.3665C30.4027 18.4233 32.1286 16.9531 34.1655 15.956C36.2024 14.9588 38.38 14.4602 40.6982 14.4602C43.1357 14.4602 45.2536 14.9972 47.0518 16.071C48.8587 17.1449 50.1712 18.7173 50.9893 20.7884C51.8161 22.8594 51.9822 25.3864 51.4879 28.3693ZM44.3288 27.5511C44.5675 26.0511 44.5845 24.7898 44.38 23.767C44.1754 22.7358 43.745 21.9602 43.0888 21.4403C42.4325 20.9119 41.5504 20.6477 40.4425 20.6477C39.1811 20.6477 38.0646 20.9545 37.093 21.5682C36.1214 22.1818 35.3161 23.0639 34.6768 24.2145C34.0376 25.3651 33.5902 26.75 33.3345 28.3693C33.0618 29.8864 33.0362 31.1477 33.2578 32.1534C33.4879 33.1591 33.9396 33.9134 34.6129 34.4162C35.2947 34.919 36.1811 35.1705 37.272 35.1705C38.5163 35.1705 39.6158 34.8722 40.5703 34.2756C41.5334 33.679 42.3303 32.8139 42.9609 31.6804C43.6001 30.5469 44.0561 29.1705 44.3288 27.5511ZM73.7035 41L78.0501 14.8182H89.3512C91.2944 14.8182 92.935 15.1719 94.2731 15.8793C95.6112 16.5866 96.5742 17.6051 97.1623 18.9347C97.7504 20.2642 97.891 21.858 97.5842 23.7159C97.2773 25.5909 96.5998 27.1719 95.5515 28.4588C94.5117 29.7372 93.1864 30.7088 91.5756 31.3736C89.9734 32.0298 88.1751 32.358 86.1808 32.358H79.4308L80.3512 26.8352H85.6694C86.5046 26.8352 87.2376 26.733 87.8683 26.5284C88.4989 26.3153 89.0103 25.983 89.4023 25.5312C89.7944 25.071 90.0501 24.4659 90.1694 23.7159C90.2887 22.9659 90.229 22.3565 89.9904 21.8878C89.7518 21.4105 89.3555 21.0611 88.8015 20.8395C88.2475 20.6094 87.5614 20.4943 86.7433 20.4943H84.2376L80.8114 41H73.7035ZM91.0387 28.983L95.5898 41H87.8683L83.4705 28.983H91.0387ZM109.556 14.8182L105.21 41H98.1019L102.449 14.8182H109.556ZM111.238 20.5455L112.209 14.8182H134.965L133.993 20.5455H126.118L122.743 41H115.738L119.113 20.5455H111.238Z" fill="black"/>
<path d="M52.68 41L57.0266 14.8182H75.4357L74.4641 20.5455H63.163L62.4471 25.0455H72.6232L71.6516 30.7727H61.4755L59.788 41H52.68ZM159.523 28.3693C159.046 31.2159 158.1 33.6023 156.685 35.5284C155.27 37.4545 153.553 38.9077 151.533 39.8878C149.513 40.8679 147.353 41.358 145.051 41.358C142.597 41.358 140.466 40.8253 138.659 39.7599C136.853 38.6946 135.536 37.1349 134.709 35.081C133.882 33.027 133.716 30.517 134.211 27.5511C134.671 24.7045 135.608 22.3097 137.023 20.3665C138.438 18.4233 140.164 16.9531 142.201 15.956C144.238 14.9588 146.415 14.4602 148.733 14.4602C151.171 14.4602 153.289 14.9972 155.087 16.071C156.894 17.1449 158.206 18.7173 159.025 20.7884C159.851 22.8594 160.017 25.3864 159.523 28.3693ZM152.364 27.5511C152.603 26.0511 152.62 24.7898 152.415 23.767C152.211 22.7358 151.78 21.9602 151.124 21.4403C150.468 20.9119 149.586 20.6477 148.478 20.6477C147.216 20.6477 146.1 20.9545 145.128 21.5682C144.157 22.1818 143.351 23.0639 142.712 24.2145C142.073 25.3651 141.625 26.75 141.37 28.3693C141.097 29.8864 141.071 31.1477 141.293 32.1534C141.523 33.1591 141.975 33.9134 142.648 34.4162C143.33 34.919 144.216 35.1705 145.307 35.1705C146.551 35.1705 147.651 34.8722 148.605 34.2756C149.569 33.679 150.365 32.8139 150.996 31.6804C151.635 30.5469 152.091 29.1705 152.364 27.5511Z" fill="black"/>
</svg>
